<svg width="32" height="32" viewBox="0 0 32 32" fill="none" xmlns="http://www.w3.org/2000/svg">
  <rect width="32" height="32" fill="#000000"/>
  <!-- Grid of dots 6x6 -->
  <circle cx="6" cy="6" r="1.5" fill="white"/>
  <circle cx="11" cy="6" r="1.5" fill="white"/>
  <circle cx="16" cy="6" r="1.5" fill="white"/>
  <circle cx="21" cy="6" r="1.5" fill="white"/>
  <circle cx="26" cy="6" r="1.5" fill="white"/>
  <circle cx="6" cy="11" r="1.5" fill="white"/>
  <circle cx="11" cy="11" r="1.5" fill="white"/>
  <circle cx="16" cy="11" r="1.5" fill="white"/>
  <circle cx="21" cy="11" r="1.5" fill="white"/>
  <circle cx="26" cy="11" r="1.5" fill="white"/>
  <circle cx="6" cy="16" r="1.5" fill="white"/>
  <circle cx="11" cy="16" r="1.5" fill="white"/>
  <circle cx="16" cy="16" r="1.5" fill="white"/>
  <circle cx="21" cy="16" r="1.5" fill="white"/>
  <circle cx="26" cy="16" r="1.5" fill="white"/>
  <circle cx="6" cy="21" r="1.5" fill="white"/>
  <circle cx="11" cy="21" r="1.5" fill="white"/>
  <circle cx="16" cy="21" r="1.5" fill="white"/>
  <circle cx="21" cy="21" r="1.5" fill="white"/>
  <circle cx="26" cy="21" r="1.5" fill="white"/>
  <circle cx="6" cy="26" r="1.5" fill="white"/>
  <circle cx="11" cy="26" r="1.5" fill="white"/>
  <circle cx="16" cy="26" r="1.5" fill="white"/>
  <circle cx="21" cy="26" r="1.5" fill="white"/>
  <circle cx="26" cy="26" r="1.5" fill="white"/>
</svg>