<svg width="32" height="32" viewBox="0 0 32 32" fill="none" xmlns="http://www.w3.org/2000/svg">
  <rect width="32" height="32" fill="white"/>
  <!-- Grid of dots 8x8 -->
  <circle cx="4" cy="4" r="1" fill="black"/>
  <circle cx="8" cy="4" r="1" fill="black"/>
  <circle cx="12" cy="4" r="1" fill="black"/>
  <circle cx="16" cy="4" r="1" fill="black"/>
  <circle cx="20" cy="4" r="1" fill="black"/>
  <circle cx="24" cy="4" r="1" fill="black"/>
  <circle cx="28" cy="4" r="1" fill="black"/>
  <circle cx="4" cy="8" r="1" fill="black"/>
  <circle cx="8" cy="8" r="1" fill="black"/>
  <circle cx="12" cy="8" r="1" fill="black"/>
  <circle cx="16" cy="8" r="1" fill="black"/>
  <circle cx="20" cy="8" r="1" fill="black"/>
  <circle cx="24" cy="8" r="1" fill="black"/>
  <circle cx="28" cy="8" r="1" fill="black"/>
  <circle cx="4" cy="12" r="1" fill="black"/>
  <circle cx="8" cy="12" r="1" fill="black"/>
  <circle cx="12" cy="12" r="1" fill="black"/>
  <circle cx="16" cy="12" r="1" fill="black"/>
  <circle cx="20" cy="12" r="1" fill="black"/>
  <circle cx="24" cy="12" r="1" fill="black"/>
  <circle cx="28" cy="12" r="1" fill="black"/>
  <circle cx="4" cy="16" r="1" fill="black"/>
  <circle cx="8" cy="16" r="1" fill="black"/>
  <circle cx="12" cy="16" r="1" fill="black"/>
  <circle cx="16" cy="16" r="1" fill="black"/>
  <circle cx="20" cy="16" r="1" fill="black"/>
  <circle cx="24" cy="16" r="1" fill="black"/>
  <circle cx="28" cy="16" r="1" fill="black"/>
  <circle cx="4" cy="20" r="1" fill="black"/>
  <circle cx="8" cy="20" r="1" fill="black"/>
  <circle cx="12" cy="20" r="1" fill="black"/>
  <circle cx="16" cy="20" r="1" fill="black"/>
  <circle cx="20" cy="20" r="1" fill="black"/>
  <circle cx="24" cy="20" r="1" fill="black"/>
  <circle cx="28" cy="20" r="1" fill="black"/>
  <circle cx="4" cy="24" r="1" fill="black"/>
  <circle cx="8" cy="24" r="1" fill="black"/>
  <circle cx="12" cy="24" r="1" fill="black"/>
  <circle cx="16" cy="24" r="1" fill="black"/>
  <circle cx="20" cy="24" r="1" fill="black"/>
  <circle cx="24" cy="24" r="1" fill="black"/>
  <circle cx="28" cy="24" r="1" fill="black"/>
  <circle cx="4" cy="28" r="1" fill="black"/>
  <circle cx="8" cy="28" r="1" fill="black"/>
  <circle cx="12" cy="28" r="1" fill="black"/>
  <circle cx="16" cy="28" r="1" fill="black"/>
  <circle cx="20" cy="28" r="1" fill="black"/>
  <circle cx="24" cy="28" r="1" fill="black"/>
  <circle cx="28" cy="28" r="1" fill="black"/>
</svg>