<svg width="32" height="32" viewBox="0 0 32 32" fill="none" xmlns="http://www.w3.org/2000/svg">
  <rect width="32" height="32" rx="8" fill="#7C3AED"/>
  <path d="M16.2 8C13.1 8 10.8 9.4 10.8 12.2C10.8 14.6 12.4 15.8 15.2 16.6L17.8 17.3C19.6 17.8 20.2 18.4 20.2 19.4C20.2 20.6 19.2 21.4 17.2 21.4C15 21.4 13.6 20.4 13.4 18.6H10C10.2 21.8 12.6 24 17.2 24C20.6 24 23 22.4 23 19.4C23 17 21.4 15.6 18.4 14.8L15.8 14.1C14.2 13.6 13.6 13 13.6 12C13.6 10.8 14.6 10 16.4 10C18.2 10 19.4 10.8 19.6 12.4H23C22.8 9.4 20.4 8 16.2 8Z" fill="white"/>
</svg>