<?xml version="1.0" standalone="no"?>
<svg version="1.0" xmlns="http://www.w3.org/2000/svg" width="16" height="16" viewBox="0 0 16 16">
  <circle cx="2" cy="2" r="1" fill="black"/>
  <circle cx="5" cy="2" r="1" fill="black"/>
  <circle cx="8" cy="2" r="1" fill="black"/>
  <circle cx="11" cy="2" r="1" fill="black"/>
  <circle cx="14" cy="2" r="1" fill="black"/>
  <circle cx="2" cy="5" r="1" fill="black"/>
  <circle cx="5" cy="5" r="1" fill="black"/>
  <circle cx="8" cy="5" r="1" fill="black"/>
  <circle cx="11" cy="5" r="1" fill="black"/>
  <circle cx="14" cy="5" r="1" fill="black"/>
  <circle cx="2" cy="8" r="1" fill="black"/>
  <circle cx="5" cy="8" r="1" fill="black"/>
  <circle cx="8" cy="8" r="1" fill="black"/>
  <circle cx="11" cy="8" r="1" fill="black"/>
  <circle cx="14" cy="8" r="1" fill="black"/>
  <circle cx="2" cy="11" r="1" fill="black"/>
  <circle cx="5" cy="11" r="1" fill="black"/>
  <circle cx="8" cy="11" r="1" fill="black"/>
  <circle cx="11" cy="11" r="1" fill="black"/>
  <circle cx="14" cy="11" r="1" fill="black"/>
  <circle cx="2" cy="14" r="1" fill="black"/>
  <circle cx="5" cy="14" r="1" fill="black"/>
  <circle cx="8" cy="14" r="1" fill="black"/>
  <circle cx="11" cy="14" r="1" fill="black"/>
  <circle cx="14" cy="14" r="1" fill="black"/>
</svg>
